<?xml version="1.0" encoding="UTF-8" standalone="no"?><!DOCTYPE svg PUBLIC "-//W3C//DTD SVG 1.1//EN" "http://www.w3.org/Graphics/SVG/1.1/DTD/svg11.dtd"><svg width="100%" height="100%" viewBox="0 0 3531 1887" version="1.1" xmlns="http://www.w3.org/2000/svg" xmlns:xlink="http://www.w3.org/1999/xlink" xml:space="preserve" xmlns:serif="http://www.serif.com/" style="fill-rule:evenodd;clip-rule:evenodd;stroke-linejoin:round;stroke-miterlimit:2;"><rect id="Logo-mit-Titel--weiß" serif:id="Logo mit Titel, weiß" x="0" y="-0" width="3530.04" height="1886.29" style="fill:none;"/><g id="Ebene-1" serif:id="Ebene 1"><path id="path324" d="M1487.1,906.801c107.88,236.427 -264.816,537.722 -591.484,604.477c-320.344,65.463 -714.412,-273.201 -591.484,-604.477c115.81,-312.096 349.647,-829.227 591.484,-604.477c251.406,233.642 426.757,243.466 591.484,604.477Z" style="fill:#a57fb2;fill-rule:nonzero;"/><path id="path324-0" d="M1372.92,926.578c107.88,231.016 -264.817,525.415 -591.484,590.642c-320.344,63.964 -714.412,-266.948 -591.485,-590.642c115.811,-304.952 349.647,-810.247 591.485,-590.641c251.405,228.294 426.757,237.894 591.484,590.641Z" style="fill:#d6bfdd;fill-rule:nonzero;"/><path id="ellipse17580-3-4" d="M599.776,482.843c-0,19.281 9.856,46.967 -10.963,42.06c-21.079,-4.967 -38.391,-2.928 -45.283,-29.631c-4.819,-18.669 5.663,-36.939 21.26,-44.312c10.094,-4.771 34.986,12.602 34.986,31.883Z" style="fill:#981e97;fill-rule:nonzero;"/><path id="ellipse17580-3-0" d="M716.381,550.724c9.994,12.618 -4.719,36.139 -25.539,31.233c-21.079,-4.968 -49.635,-7.51 -56.527,-34.213c-4.818,-18.669 24.821,-9.037 40.417,-16.409c10.094,-4.772 29.677,4.275 41.649,19.389Z" style="fill:#981e97;fill-rule:nonzero;"/><path id="ellipse17580-3-0-7" d="M695.67,1422.42c9.994,12.618 -4.719,36.139 -25.539,31.233c-21.079,-4.968 -49.635,-7.51 -56.527,-34.213c-4.819,-18.669 24.82,-9.037 40.417,-16.409c10.094,-4.772 29.677,4.276 41.649,19.389Z" style="fill:#981e97;fill-rule:nonzero;"/><path id="ellipse17580" d="M745.143,415.618c0,19.281 -24.708,53.213 -45.527,48.307c-21.08,-4.968 -29.646,-24.584 -36.538,-51.287c-4.819,-18.669 -1.416,-26.945 14.18,-34.317c10.095,-4.772 67.885,18.016 67.885,37.297Z" style="fill:#981e97;fill-rule:nonzero;"/><path id="ellipse17580-9" d="M972.938,1379.2c-0,19.28 -24.708,53.213 -45.528,48.306c-21.079,-4.967 -29.645,-24.583 -36.538,-51.287c-4.818,-18.669 -1.415,-26.944 14.181,-34.316c10.094,-4.772 67.885,18.016 67.885,37.297Z" style="fill:#981e97;fill-rule:nonzero;"/><path id="ellipse17580-3" d="M852.129,494.178c-0,19.281 -28.384,45.014 -49.203,40.107c-21.08,-4.967 -38.391,-2.928 -45.283,-29.631c-4.819,-18.669 23.918,-25.505 39.515,-32.878c10.094,-4.771 54.971,3.121 54.971,22.402Z" style="fill:#981e97;fill-rule:nonzero;"/><path id="ellipse17580-3-6" d="M984.462,685.746c-0,19.281 5.773,29.488 -15.046,24.582c-21.08,-4.968 -60.128,-0.859 -67.02,-27.562c-4.818,-18.669 47.725,-28.61 63.322,-35.982c10.094,-4.772 18.744,19.681 18.744,38.962Z" style="fill:#981e97;fill-rule:nonzero;"/><path id="ellipse17580-3-04" d="M692.074,679.423c0,19.28 1.634,31.557 -19.186,26.651c-21.079,-4.967 -38.391,-2.928 -45.283,-29.631c-4.819,-18.67 47.725,-28.611 63.322,-35.983c10.094,-4.772 1.147,19.682 1.147,38.963Z" style="fill:#960090;fill-rule:nonzero;"/><path id="ellipse17580-3-05" d="M584.125,623.091c0,19.281 -15.962,31.558 -36.782,26.651c-21.079,-4.967 -17.69,-20.524 -24.582,-47.227c-4.819,-18.669 27.024,-11.014 42.62,-18.387c10.094,-4.771 18.744,19.682 18.744,38.963Z" style="fill:#981e97;fill-rule:nonzero;"/><path id="ellipse17580-3-05-0" d="M950.244,1141.68c-0,19.28 -15.963,31.557 -36.782,26.651c-21.08,-4.967 -17.69,-20.524 -24.582,-47.228c-4.819,-18.669 27.023,-11.014 42.62,-18.386c10.094,-4.772 18.744,19.682 18.744,38.963Z" style="fill:#981e97;fill-rule:nonzero;"/><path id="ellipse17580-3-68" d="M418.983,722.344c0,19.281 -15.963,31.558 -36.782,26.651c-21.08,-4.967 -38.391,-2.928 -45.283,-29.631c-4.819,-18.669 13.567,-39.996 29.164,-47.368c10.094,-4.772 52.901,31.067 52.901,50.348Z" style="fill:#981e97;fill-rule:nonzero;"/><path id="ellipse17580-3-68-9" d="M1166.2,828.962c0,19.281 -15.962,31.558 -36.782,26.652c-21.079,-4.967 -38.391,-2.928 -45.283,-29.632c-4.819,-18.669 13.568,-39.995 29.164,-47.368c10.094,-4.771 52.901,31.068 52.901,50.348Z" style="fill:#981e97;fill-rule:nonzero;"/><g id="text17608-8"><g transform="matrix(1,0,0,0.982058,-2.27374e-13,11.1941)"><text x="1595.02px" y="623.902px" style="font-family:'BebasNeue-Regular', 'Bebas Neue', sans-serif;font-size:422.44px;fill:#fff;">M3</text></g><g transform="matrix(1,0,0,0.982058,-2.27374e-13,18.6376)"><text x="1595.02px" y="1038.76px" style="font-family:'BebasNeue-Regular', 'Bebas Neue', sans-serif;font-size:422.44px;fill:#fff;">A<tspan x="1758.51px 1987.89px " y="1038.76px 1038.76px ">WA</tspan>RENE<tspan x="2815.45px " y="1038.76px ">S</tspan>S</text></g><g transform="matrix(1,0,0,0.982058,-2.27374e-13,26.0811)"><text x="1595.02px" y="1453.62px" style="font-family:'BebasNeue-Regular', 'Bebas Neue', sans-serif;font-size:422.44px;fill:#fff;">PRO<tspan x="2095.61px " y="1453.62px ">J</tspan>ECT</text></g></g><path id="path18641" d="M717.194,1046.19c0,19.281 -15.963,31.558 -36.782,26.652c-21.08,-4.968 -38.391,-2.929 -45.283,-29.632c-4.819,-18.669 47.725,-28.61 63.321,-35.982c10.094,-4.772 18.744,19.681 18.744,38.962Z" style="fill:#981e97;fill-rule:nonzero;"/><path id="path18641-7" d="M602.724,1018.06c0,19.281 -29.755,38.914 -50.575,34.008c-21.079,-4.967 -38.391,-2.928 -45.283,-29.632c-4.819,-18.669 46.322,-38.92 63.321,-35.982c46.875,8.102 32.537,12.325 32.537,31.606Z" style="fill:#981e97;fill-rule:nonzero;"/><path id="path18643" d="M461.061,1203.17c4.017,39.364 -1.251,42.592 -63.449,34.007c-21.453,-2.961 -38.391,-2.928 -45.283,-29.631c-4.818,-18.669 47.725,-28.61 63.322,-35.983c10.094,-4.771 43.453,12.425 45.41,31.607Z" style="fill:#981e97;fill-rule:nonzero;"/><path id="path18645" d="M431.382,1051.38c0,19.281 -15.962,31.558 -36.782,26.651c-21.079,-4.967 -64.144,-43.104 -48.042,-65.493c15.411,-21.427 50.484,7.252 66.08,-0.121c10.094,-4.771 18.744,19.682 18.744,38.963l0,-0Z" style="fill:#981e97;fill-rule:nonzero;"/><path id="path18647" d="M668.18,799.135c-0,19.281 -32.524,53.294 -53.344,48.388c-21.079,-4.968 -38.391,-2.929 -45.283,-29.632c-4.819,-18.669 47.725,-28.61 63.322,-35.983c10.094,-4.771 35.305,-2.054 35.305,17.227Z" style="fill:#981e97;fill-rule:nonzero;"/><path id="path18649" d="M834.471,1052.3c-0,19.281 13.062,25.108 -7.758,20.202c-21.079,-4.967 -13.817,-0.397 -38.446,-22.262c-14.419,-12.801 2.668,-50.679 18.265,-58.051c10.094,-4.772 27.939,40.831 27.939,60.111Z" style="fill:#981e97;fill-rule:nonzero;"/><path id="path18739" d="M1029.05,1277.53c-0,19.281 -22.8,39.234 -43.62,34.328c-21.079,-4.967 -31.554,-10.605 -38.446,-37.308c-4.819,-18.669 47.725,-28.61 63.321,-35.983c10.095,-4.771 18.745,19.682 18.745,38.963Z" style="fill:#981e97;fill-rule:nonzero;"/><path id="path18741" d="M974.845,595.295c-0,19.281 -15.963,31.558 -36.782,26.652c-21.08,-4.968 -4.369,-46.146 -11.261,-72.849c-4.819,-18.669 30.081,-33.572 38.494,-18.512c13.772,24.653 9.549,45.428 9.549,64.709Z" style="fill:#981e97;fill-rule:nonzero;"/><path id="path18745" d="M854.979,774.619c-0,19.281 -15.963,31.558 -36.783,26.652c-21.079,-4.968 -38.391,-2.929 -45.283,-29.632c-4.818,-18.669 10.463,-28.61 26.059,-35.983c10.094,-4.771 56.007,19.682 56.007,38.963Z" style="fill:#981e97;fill-rule:nonzero;"/><path id="path18747" d="M498.092,541.59c0,19.281 -15.962,31.558 -36.782,26.652c-21.079,-4.968 -38.391,-2.929 -45.283,-29.632c-4.819,-18.669 47.725,-28.61 63.321,-35.983c10.095,-4.771 18.744,19.682 18.744,38.963Z" style="fill:#981e97;fill-rule:nonzero;"/><path id="path18749" d="M984.981,813.723c-0,19.281 -15.963,31.558 -36.783,26.652c-21.079,-4.968 -38.391,-2.929 -45.283,-29.632c-4.818,-18.669 47.725,-28.61 63.322,-35.982c10.094,-4.772 18.744,19.681 18.744,38.962Z" style="fill:#981e97;fill-rule:nonzero;"/><path id="path18751" d="M841.536,624.998c-0,19.28 -15.963,31.557 -36.783,26.651c-21.079,-4.967 -38.391,-2.928 -45.283,-29.632c-4.818,-18.669 11.498,-29.645 27.094,-37.017c10.094,-4.772 54.972,20.717 54.972,39.998Z" style="fill:#960090;fill-rule:nonzero;"/><path id="path18753" d="M485.619,1124.62c-32.183,18.362 -15.962,31.558 -36.782,26.652c-21.079,-4.967 -38.391,-2.928 -45.283,-29.632c-4.819,-18.669 47.725,-28.61 63.321,-35.982c10.094,-4.772 35.491,29.408 18.744,38.962Z" style="fill:#981e97;fill-rule:nonzero;"/><path id="path18755" d="M734.729,905.024c-0,19.281 -15.963,31.558 -36.783,26.652c-21.079,-4.968 -23.9,-39.156 -30.792,-65.859c-4.818,-18.669 33.234,7.617 48.831,0.244c10.094,-4.771 18.744,19.682 18.744,38.963l-0,0Z" style="fill:#981e97;fill-rule:nonzero;"/><path id="path18757" d="M901.609,1260.43c-0,19.281 -15.963,31.558 -36.783,26.651c-21.079,-4.967 -38.391,-2.928 -45.283,-29.631c-4.818,-18.669 18.3,-17.576 33.897,-24.949c10.094,-4.771 48.169,8.648 48.169,27.929Z" style="fill:#981e97;fill-rule:nonzero;"/><path id="path18759" d="M575.68,894.277c-0,19.281 -21.138,53.294 -41.958,48.388c-21.079,-4.967 -33.216,-24.665 -40.108,-51.368c-4.818,-18.669 47.725,-28.61 63.322,-35.982c10.094,-4.772 18.744,19.681 18.744,38.962Z" style="fill:#981e97;fill-rule:nonzero;"/><path id="path18761" d="M554.605,726.945c0,19.281 -6.537,12.707 -36.782,26.652c-19.667,9.067 -38.391,-2.929 -45.283,-29.632c-4.819,-18.669 47.725,-28.61 63.321,-35.983c10.094,-4.771 18.744,19.682 18.744,38.963Z" style="fill:#981e97;fill-rule:nonzero;"/><path id="path18763" d="M657.876,1190.18c0,19.281 -16.882,54.546 -37.702,49.64c-21.079,-4.968 -37.471,-25.917 -44.363,-52.62c-4.819,-18.669 10.944,-40.564 26.54,-47.937c10.094,-4.771 55.525,31.636 55.525,50.917Z" style="fill:#981e97;fill-rule:nonzero;"/><path id="path18765" d="M434.306,832.844c-0,19.281 -15.963,31.558 -36.782,26.652c-21.08,-4.968 -38.392,-2.929 -45.284,-29.632c-4.818,-18.669 31.164,-6.873 46.761,-14.246c10.094,-4.771 35.305,-2.055 35.305,17.226Z" style="fill:#981e97;fill-rule:nonzero;"/><path id="path19470" d="M886.786,871.969c33.103,18.361 25.416,75.695 4.596,70.788c-21.079,-4.967 -84.367,-28.675 -91.259,-55.378c-4.818,-18.669 47.725,-28.61 63.322,-35.982c10.094,-4.772 6.48,11.22 23.341,20.572Z" style="fill:#981e97;fill-rule:nonzero;"/><path id="path19474" d="M1113.92,700.811c33.103,18.361 -10.207,48.604 -31.026,43.698c-21.08,-4.968 -46.948,-12.365 -53.841,-39.068c-4.818,-18.669 45.929,-17.83 61.525,-25.203c10.094,-4.771 6.481,11.22 23.342,20.573Z" style="fill:#981e97;fill-rule:nonzero;"/><path id="path19478" d="M1049.6,902.875c33.103,18.362 -22.557,56.506 -43.377,51.6c-21.079,-4.968 -36.394,-9.486 -43.286,-36.189c-4.818,-18.67 47.725,-28.611 63.322,-35.983c10.094,-4.772 6.481,11.22 23.341,20.572Z" style="fill:#981e97;fill-rule:nonzero;"/><path id="path19480" d="M1137.51,1263.97c33.103,18.362 7.186,37.317 -13.634,32.411c-21.079,-4.968 -66.137,9.703 -73.029,-17c-4.819,-18.669 47.725,-28.61 63.321,-35.983c10.095,-4.771 6.481,11.22 23.342,20.572Z" style="fill:#981e97;fill-rule:nonzero;"/><path id="path19482" d="M1001.48,1001.97c33.103,18.361 -39.828,58.425 -60.647,53.518c-21.079,-4.967 -14.327,-24.837 -21.219,-51.54c-4.818,-18.669 29.495,-31.488 45.092,-38.861c10.094,-4.771 19.913,27.531 36.774,36.883Z" style="fill:#981e97;fill-rule:nonzero;"/><path id="path19484" d="M782.556,1144.83c33.103,18.362 17.354,91.82 -3.466,86.914c-21.079,-4.968 -53.73,-28.675 -60.622,-55.378c-4.818,-18.67 17.088,-28.611 32.684,-35.983c10.094,-4.772 14.544,-4.905 31.404,4.447Z" style="fill:#981e97;fill-rule:nonzero;"/><path id="path19486" d="M558.167,1306.73c33.102,19.187 -7.754,70.379 -25.68,58.184c-21.079,-14.339 -47.28,-2.742 -54.172,-30.647c-4.819,-19.51 12.25,-50.119 27.847,-57.823c10.094,-4.987 35.144,20.512 52.005,30.286Z" style="fill:#981e97;fill-rule:nonzero;"/><path id="path19488" d="M830.453,1346.62c33.102,18.361 1.429,31.559 -19.391,26.653c-21.079,-4.967 -34.58,12.235 -41.473,-14.468c-4.818,-18.669 -1.102,-34.954 14.495,-42.327c10.094,-4.771 29.508,20.79 46.369,30.142Z" style="fill:#981e97;fill-rule:nonzero;"/><path id="path19490" d="M699.518,1300.89c33.103,18.361 -12.003,35.397 -32.823,30.491c-21.079,-4.968 -38.725,-0.132 -45.617,-26.836c-4.818,-18.669 20.313,-22.16 35.909,-29.532c10.094,-4.772 25.67,16.524 42.531,25.877Z" style="fill:#981e97;fill-rule:nonzero;"/><path id="path19492" d="M312.091,1041.37c33.103,18.361 25.416,75.694 4.597,70.788c-21.08,-4.967 -84.368,-28.675 -91.26,-55.378c-4.818,-18.669 47.725,-28.61 63.322,-35.983c10.094,-4.771 6.481,11.22 23.341,20.573Z" style="fill:#981e97;fill-rule:nonzero;"/><path id="path19494" d="M360.131,913.479c33.103,18.361 25.416,75.695 4.596,70.788c-21.079,-4.967 -84.367,-28.675 -91.259,-55.378c-4.818,-18.669 47.725,-28.61 63.322,-35.982c10.094,-4.772 6.48,11.219 23.341,20.572Z" style="fill:#981e97;fill-rule:nonzero;"/></g></svg>