<?xml version="1.0" encoding="UTF-8" standalone="no"?>
<!-- Created with Inkscape (http://www.inkscape.org/) -->

<svg
   width="321.39999"
   height="306.6835"
   viewBox="0 0 321.4 306.68351"
   version="1.1"
   id="svg5"
   inkscape:version="1.2.2 (b0a84865, 2022-12-01)"
   sodipodi:docname="Logo_empty.svg"
   inkscape:export-filename="favicon.png"
   inkscape:export-xdpi="20.033682"
   inkscape:export-ydpi="20.033682"
   xmlns:inkscape="http://www.inkscape.org/namespaces/inkscape"
   xmlns:sodipodi="http://sodipodi.sourceforge.net/DTD/sodipodi-0.dtd"
   xmlns:xlink="http://www.w3.org/1999/xlink"
   xmlns="http://www.w3.org/2000/svg"
   xmlns:svg="http://www.w3.org/2000/svg">
  <sodipodi:namedview
     id="namedview7"
     pagecolor="#ffffff"
     bordercolor="#000000"
     borderopacity="0.25"
     inkscape:showpageshadow="2"
     inkscape:pageopacity="0.0"
     inkscape:pagecheckerboard="0"
     inkscape:deskcolor="#d1d1d1"
     inkscape:document-units="px"
     showgrid="false"
     inkscape:zoom="0.78018344"
     inkscape:cx="255.06822"
     inkscape:cy="146.76036"
     inkscape:window-width="1440"
     inkscape:window-height="751"
     inkscape:window-x="0"
     inkscape:window-y="25"
     inkscape:window-maximized="0"
     inkscape:current-layer="layer1" />
  <defs
     id="defs2">
    <linearGradient
       id="linearGradient19268"
       inkscape:swatch="solid">
      <stop
         style="stop-color:#73015c;stop-opacity:1;"
         offset="0"
         id="stop19266" />
    </linearGradient>
    <linearGradient
       inkscape:collect="always"
       id="linearGradient19216">
      <stop
         style="stop-color:#000000;stop-opacity:1;"
         offset="0"
         id="stop19212" />
      <stop
         style="stop-color:#000000;stop-opacity:0;"
         offset="1"
         id="stop19214" />
    </linearGradient>
    <linearGradient
       id="linearGradient18442">
      <stop
         style="stop-color:#73015c;stop-opacity:1;"
         offset="0.41336274"
         id="stop18446" />
      <stop
         style="stop-color:#c0c0c0;stop-opacity:0.52156866;"
         offset="1"
         id="stop18448" />
    </linearGradient>
    <linearGradient
       id="linearGradient18442-1">
      <stop
         style="stop-color:#73015c;stop-opacity:1;"
         offset="0.46703506"
         id="stop18438" />
      <stop
         style="stop-color:#73015c;stop-opacity:0;"
         offset="1"
         id="stop18440" />
    </linearGradient>
    <linearGradient
       id="linearGradient18434"
       inkscape:swatch="solid">
      <stop
         style="stop-color:#73015c;stop-opacity:1;"
         offset="0"
         id="stop18432" />
    </linearGradient>
    <linearGradient
       inkscape:collect="always"
       xlink:href="#linearGradient19216"
       id="linearGradient19218"
       x1="99.223061"
       y1="119.82498"
       x2="245.90613"
       y2="119.82498"
       gradientUnits="userSpaceOnUse" />
    <linearGradient
       inkscape:collect="always"
       xlink:href="#linearGradient19268"
       id="linearGradient19270"
       x1="99.223061"
       y1="119.82498"
       x2="245.90613"
       y2="119.82498"
       gradientUnits="userSpaceOnUse" />
  </defs>
  <g
     inkscape:label="Ebene 1"
     inkscape:groupmode="layer"
     id="layer1"
     transform="translate(-41.816397,-46.611137)">
    <path
       id="path324"
       style="fill:#a57fb2;fill-opacity:1;stroke-width:8.09316"
       d="M 358.65994,204.87457 C 384.55117,261.61714 295.104,333.92796 216.70377,349.94915 139.8212,365.6602 45.244916,284.38085 74.747586,204.87457 102.5421,129.97156 158.66286,5.8600383 216.70377,59.799978 277.04114,115.87413 319.12556,118.232 358.65994,204.87457 Z"
       sodipodi:nodetypes="sssss" />
    <path
       id="path324-0"
       style="fill:#d6bfdd;fill-opacity:1;stroke-width:8"
       d="M 331.25639,209.62108 C 357.14762,265.06487 267.70045,335.72057 189.30022,351.37505 112.41765,366.72649 17.841376,287.30754 47.344036,209.62108 75.138546,136.43253 131.25931,15.161798 189.30022,67.867108 249.63759,122.65778 291.72201,124.96168 331.25639,209.62108 Z"
       sodipodi:nodetypes="sssss" />
    <path
       id="ellipse17580-3-4"
       style="fill:#981e97;fill-opacity:1;stroke-width:8"
       d="m 145.70206,103.12472 c 0,4.62742 2.36566,11.27194 -2.63103,10.09444 -5.05905,-1.19219 -9.21387,-0.70284 -10.86798,-7.1116 -1.15645,-4.48058 1.35931,-8.865372 5.10249,-10.634772 2.42259,-1.14516 8.39652,3.02452 8.39652,7.651932 z"
       sodipodi:nodetypes="sssss" />
    <path
       id="ellipse17580-3-0"
       style="fill:#981e97;fill-opacity:1;stroke-width:8"
       d="m 173.6873,119.41614 c 2.39874,3.02825 -1.13249,8.6733 -6.12918,7.4958 -5.05905,-1.19219 -11.91245,-1.80226 -13.56656,-8.21102 -1.15645,-4.48058 5.95689,-2.1689 9.70007,-3.9383 2.42259,-1.14516 7.12241,1.02621 9.99567,4.65352 z"
       sodipodi:nodetypes="sssss" />
    <path
       id="ellipse17580-3-0-7"
       style="fill:#981e97;fill-opacity:1;stroke-width:8"
       d="m 168.71661,328.62345 c 2.39874,3.02825 -1.13249,8.6733 -6.12918,7.4958 -5.05905,-1.19219 -11.91245,-1.80226 -13.56656,-8.21102 -1.15645,-4.48058 5.95689,-2.1689 9.70007,-3.9383 2.42259,-1.14516 7.12241,1.02621 9.99567,4.65352 z"
       sodipodi:nodetypes="sssss"
       inkscape:transform-center-x="40.976486"
       inkscape:transform-center-y="-71.535222" />
    <path
       id="ellipse17580"
       style="fill:#981e97;fill-opacity:1;stroke-width:8"
       d="m 180.5903,86.990588 c 0,4.62742 -5.92996,12.77114 -10.92665,11.59365 -5.05905,-1.19219 -7.11498,-5.9001 -8.76909,-12.30886 -1.15645,-4.48058 -0.33979,-6.46663 3.40339,-8.23603 2.42259,-1.14516 16.29235,4.32383 16.29235,8.95124 z"
       sodipodi:nodetypes="sssss" />
    <path
       id="ellipse17580-9"
       style="fill:#981e97;fill-opacity:1;stroke-width:8"
       d="m 235.26104,318.25119 c 0,4.62742 -5.92996,12.77114 -10.92665,11.59364 -5.05905,-1.19219 -7.11498,-5.9001 -8.76909,-12.30886 -1.15645,-4.48057 -0.33979,-6.46663 3.40339,-8.23603 2.42259,-1.14516 16.29235,4.32384 16.29235,8.95125 z"
       sodipodi:nodetypes="sssss" />
    <path
       id="ellipse17580-3"
       style="fill:#981e97;fill-opacity:1;stroke-width:8"
       d="m 206.26687,105.84505 c 0,4.62741 -6.81206,10.80328 -11.80875,9.62578 -5.05905,-1.19219 -9.21387,-0.70284 -10.86798,-7.1116 -1.15645,-4.48058 5.74043,-6.12117 9.48361,-7.89057 2.42259,-1.145162 13.19312,0.74897 13.19312,5.37639 z"
       sodipodi:nodetypes="sssss" />
    <path
       id="ellipse17580-3-6"
       style="fill:#981e97;fill-opacity:1;stroke-width:8"
       d="m 238.02673,151.82144 c 0,4.6274 1.38566,7.07704 -3.61103,5.89954 -5.05905,-1.19219 -14.4306,-0.20601 -16.08471,-6.61476 -1.15645,-4.48058 11.45399,-6.86642 15.19717,-8.63582 2.42259,-1.14516 4.49857,4.72362 4.49857,9.35104 z"
       sodipodi:nodetypes="sssss" />
    <path
       id="ellipse17580-3-04"
       style="fill:#960090;fill-opacity:1;stroke-width:8"
       d="m 167.85379,150.30376 c 0,4.62741 0.392,7.57388 -4.60469,6.39638 -5.05905,-1.19219 -9.21387,-0.70284 -10.86798,-7.1116 -1.15645,-4.48058 11.45399,-6.86642 15.19717,-8.63581 2.42259,-1.14517 0.2755,4.72362 0.2755,9.35103 z"
       sodipodi:nodetypes="sssss" />
    <path
       id="ellipse17580-3-05"
       style="fill:#981e97;fill-opacity:1;stroke-width:8"
       d="m 141.946,136.78413 c 0,4.62741 -3.83107,7.57388 -8.82777,6.39638 -5.05905,-1.19219 -4.24555,-4.92591 -5.89966,-11.33467 -1.15645,-4.48058 6.48567,-2.64335 10.22886,-4.41275 2.42259,-1.14516 4.49857,4.72362 4.49857,9.35104 z"
       sodipodi:nodetypes="sssss" />
    <path
       id="ellipse17580-3-05-0"
       style="fill:#981e97;fill-opacity:1;stroke-width:8"
       d="m 229.81446,261.24448 c 0,4.62741 -3.83107,7.57388 -8.82777,6.39638 -5.05905,-1.19219 -4.24555,-4.92591 -5.89966,-11.33467 -1.15645,-4.48058 6.48567,-2.64335 10.22886,-4.41275 2.42259,-1.14516 4.49857,4.72362 4.49857,9.35104 z"
       sodipodi:nodetypes="sssss" />
    <path
       id="ellipse17580-3-68"
       style="fill:#981e97;fill-opacity:1;stroke-width:8"
       d="m 102.31186,160.60486 c 0,4.62741 -3.831069,7.57388 -8.827759,6.39638 -5.059045,-1.19219 -9.213865,-0.70284 -10.867975,-7.1116 -1.15645,-4.48058 3.25627,-9.59899 6.99945,-11.36838 2.42259,-1.14517 12.696284,7.45619 12.696284,12.0836 z"
       sodipodi:nodetypes="sssss" />
    <path
       id="ellipse17580-3-68-9"
       style="fill:#981e97;fill-opacity:1;stroke-width:8"
       d="m 281.64425,186.19333 c 0,4.62741 -3.83107,7.57388 -8.82776,6.39638 -5.05905,-1.19219 -9.21387,-0.70284 -10.86798,-7.1116 -1.15645,-4.48058 3.25627,-9.59899 6.99945,-11.36838 2.42259,-1.14517 12.69629,7.45619 12.69629,12.0836 z"
       sodipodi:nodetypes="sssss" />
    <path
       id="path18641"
       style="fill:#981e97;fill-opacity:1;stroke-width:8"
       d="m 173.88253,238.3285 c 0,4.62741 -3.83107,7.57388 -8.82776,6.39638 -5.05905,-1.19219 -9.21387,-0.70284 -10.86798,-7.1116 -1.15645,-4.48058 11.45399,-6.86642 15.19717,-8.63581 2.42259,-1.14517 4.49857,4.72362 4.49857,9.35103 z"
       sodipodi:nodetypes="sssss"
       inkscape:spray-origin="#ellipse17580-3-68" />
    <path
       id="path18641-7"
       style="fill:#981e97;fill-opacity:1;stroke-width:8"
       d="m 146.40973,231.57657 c 0,4.62741 -7.14135,9.33936 -12.13804,8.16186 -5.05905,-1.19219 -9.21387,-0.70284 -10.86798,-7.1116 -1.15645,-4.48058 11.11735,-9.34096 15.19717,-8.63581 11.24999,1.94442 7.80885,2.95814 7.80885,7.58555 z"
       sodipodi:nodetypes="sssss"
       inkscape:spray-origin="#ellipse17580-3-68" />
    <path
       id="path18643"
       style="fill:#981e97;fill-opacity:1;stroke-width:8"
       d="m 112.41051,276.0035 c 0.96403,9.44754 -0.30011,10.2221 -15.227631,8.16186 -5.148813,-0.71062 -9.213863,-0.70284 -10.867973,-7.1116 -1.15645,-4.48058 11.453983,-6.86642 15.197164,-8.63581 2.42259,-1.14517 10.4287,2.98204 10.89844,7.58555 z"
       sodipodi:nodetypes="sssss"
       inkscape:spray-origin="#ellipse17580-3-68" />
    <path
       id="path18645"
       style="fill:#981e97;fill-opacity:1;stroke-width:8"
       d="m 105.28769,239.57419 c 0,4.62741 -3.83107,7.57388 -8.827764,6.39638 -5.05905,-1.19219 -15.39461,-10.34493 -11.53003,-15.71832 3.69862,-5.14263 12.11604,1.7403 15.859224,-0.0291 2.42259,-1.14517 4.49857,4.72362 4.49857,9.35103 z"
       sodipodi:nodetypes="sssss"
       inkscape:spray-origin="#ellipse17580-3-68" />
    <path
       id="path18647"
       style="fill:#981e97;fill-opacity:1;stroke-width:8"
       d="m 162.11903,179.03465 c 0,4.62741 -7.80572,12.79061 -12.80241,11.61311 -5.05905,-1.19219 -9.21387,-0.70284 -10.86798,-7.1116 -1.15645,-4.48058 11.45399,-6.86642 15.19717,-8.63581 2.42259,-1.14517 8.47322,-0.49311 8.47322,4.1343 z"
       sodipodi:nodetypes="sssss"
       inkscape:spray-origin="#ellipse17580-3-68" />
    <path
       id="path18649"
       style="fill:#981e97;fill-opacity:1;stroke-width:8"
       d="m 202.02894,239.7942 c 0,4.62741 3.1349,6.02589 -1.86179,4.84839 -5.05905,-1.19219 -3.31614,-0.0952 -9.22723,-5.34292 -3.46047,-3.07215 0.64042,-12.16287 4.3836,-13.93226 2.42259,-1.14517 6.70542,9.79938 6.70542,14.42679 z"
       sodipodi:nodetypes="sssss"
       inkscape:spray-origin="#ellipse17580-3-68" />
    <path
       id="path18739"
       style="fill:#981e97;fill-opacity:1;stroke-width:8"
       d="m 248.72781,293.84907 c 0,4.62741 -5.47194,9.41626 -10.46863,8.23876 -5.05904,-1.19219 -7.57299,-2.54522 -9.2271,-8.95398 -1.15645,-4.48058 11.45398,-6.86642 15.19716,-8.63581 2.42259,-1.14517 4.49857,4.72362 4.49857,9.35103 z"
       sodipodi:nodetypes="sssss"
       inkscape:spray-origin="#ellipse17580-3-68" />
    <path
       id="path18741"
       style="fill:#981e97;fill-opacity:1;stroke-width:8"
       d="m 235.71871,130.11321 c 0,4.62741 -3.83107,7.57388 -8.82776,6.39638 -5.05904,-1.19219 -1.04851,-11.07504 -2.70262,-17.4838 -1.15645,-4.48058 7.21944,-8.05733 9.23866,-4.44279 3.30533,5.91675 2.29172,10.9028 2.29172,15.53021 z"
       sodipodi:nodetypes="sssss"
       inkscape:spray-origin="#ellipse17580-3-68" />
    <path
       id="path18745"
       style="fill:#981e97;fill-opacity:1;stroke-width:8"
       d="m 206.95081,173.1509 c 0,4.62741 -3.83107,7.57388 -8.82776,6.39638 -5.05904,-1.19219 -9.21386,-0.70284 -10.86797,-7.1116 -1.15645,-4.48058 2.51102,-6.86642 6.2542,-8.63581 2.42259,-1.14517 13.44153,4.72362 13.44153,9.35103 z"
       sodipodi:nodetypes="sssss"
       inkscape:spray-origin="#ellipse17580-3-68" />
    <path
       id="path18747"
       style="fill:#981e97;fill-opacity:1;stroke-width:8"
       d="m 121.29812,117.22392 c 0,4.62741 -3.83107,7.57388 -8.82776,6.39638 -5.05905,-1.19219 -9.21387,-0.70284 -10.86798,-7.1116 -1.15645,-4.48058 11.45399,-6.86642 15.19717,-8.63581 2.42259,-1.14517 4.49857,4.72362 4.49857,9.35103 z"
       sodipodi:nodetypes="sssss"
       inkscape:spray-origin="#ellipse17580-3-68" />
    <path
       id="path18749"
       style="fill:#981e97;fill-opacity:1;stroke-width:8"
       d="m 238.15132,182.53594 c 0,4.62741 -3.83107,7.57388 -8.82776,6.39638 -5.05905,-1.19219 -9.21387,-0.70284 -10.86798,-7.1116 -1.15645,-4.48058 11.45399,-6.86642 15.19717,-8.63581 2.42259,-1.14517 4.49857,4.72362 4.49857,9.35103 z"
       sodipodi:nodetypes="sssss"
       inkscape:spray-origin="#ellipse17580-3-68" />
    <path
       id="path18751"
       style="fill:#960090;fill-opacity:1;stroke-width:8"
       d="m 203.72447,137.24175 c 0,4.62741 -3.83107,7.57388 -8.82776,6.39638 -5.05904,-1.19219 -9.21386,-0.70284 -10.86797,-7.1116 -1.15645,-4.48058 2.75943,-7.11484 6.50261,-8.88423 2.42259,-1.14517 13.19312,4.97204 13.19312,9.59945 z"
       sodipodi:nodetypes="sssss"
       inkscape:spray-origin="#ellipse17580-3-68" />
    <path
       id="path18753"
       style="fill:#981e97;fill-opacity:1;stroke-width:8"
       d="m 118.30458,257.15005 c -7.72398,4.40672 -3.83107,7.57388 -8.82776,6.39638 -5.05905,-1.19219 -9.21387,-0.70284 -10.867981,-7.1116 -1.15645,-4.48058 11.453991,-6.86642 15.197171,-8.63581 2.42259,-1.14517 8.51785,7.05793 4.49857,9.35103 z"
       sodipodi:nodetypes="sssss"
       inkscape:spray-origin="#ellipse17580-3-68" />
    <path
       id="path18755"
       style="fill:#981e97;fill-opacity:1;stroke-width:8"
       d="m 178.09082,204.44815 c 0,4.62741 -3.83107,7.57388 -8.82776,6.39638 -5.05904,-1.19219 -5.73604,-9.39739 -7.39015,-15.80615 -1.15645,-4.48058 7.97616,1.82813 11.71934,0.0587 2.42259,-1.14517 4.49857,4.72362 4.49857,9.35103 z"
       sodipodi:nodetypes="sssss"
       inkscape:spray-origin="#ellipse17580-3-68" />
    <path
       id="path18757"
       style="fill:#981e97;fill-opacity:1;stroke-width:8"
       d="m 218.142,289.74598 c 0,4.62741 -3.83107,7.57388 -8.82776,6.39638 -5.05905,-1.19219 -9.21387,-0.70284 -10.86798,-7.1116 -1.15645,-4.48058 4.39207,-4.2182 8.13525,-5.98759 2.42259,-1.14517 11.56049,2.0754 11.56049,6.70281 z"
       sodipodi:nodetypes="sssss"
       inkscape:spray-origin="#ellipse17580-3-68" />
    <path
       id="path18759"
       style="fill:#981e97;fill-opacity:1;stroke-width:8"
       d="m 139.9191,201.86886 c 0,4.62741 -5.07315,12.79061 -10.06984,11.61311 -5.05905,-1.19219 -7.97179,-5.91957 -9.6259,-12.32833 -1.15645,-4.48058 11.45399,-6.86642 15.19717,-8.63581 2.42259,-1.14517 4.49857,4.72362 4.49857,9.35103 z"
       sodipodi:nodetypes="sssss"
       inkscape:spray-origin="#ellipse17580-3-68" />
    <path
       id="path18761"
       style="fill:#981e97;fill-opacity:1;stroke-width:8"
       d="m 134.86117,161.70915 c 0,4.62741 -1.56901,3.04976 -8.82776,6.39638 -4.72011,2.17619 -9.21386,-0.70284 -10.86797,-7.1116 -1.15645,-4.48058 11.45398,-6.86642 15.19716,-8.63581 2.42259,-1.14517 4.49857,4.72362 4.49857,9.35103 z"
       sodipodi:nodetypes="sssss"
       inkscape:spray-origin="#ellipse17580-3-68" />
    <path
       id="path18763"
       style="fill:#981e97;fill-opacity:1;stroke-width:8"
       d="m 159.6462,272.88527 c 0,4.62741 -4.05176,13.09101 -9.04845,11.91351 -5.05904,-1.19219 -8.99317,-6.21997 -10.64728,-12.62873 -1.15645,-4.48058 2.62658,-9.73533 6.36976,-11.50472 2.42259,-1.14517 13.32597,7.59253 13.32597,12.21994 z"
       sodipodi:nodetypes="sssss"
       inkscape:spray-origin="#ellipse17580-3-68" />
    <path
       id="path18765"
       style="fill:#981e97;fill-opacity:1;stroke-width:8"
       d="m 105.98934,187.12498 c 0,4.62741 -3.83107,7.57388 -8.827757,6.39638 -5.059047,-1.19219 -9.213867,-0.70284 -10.867977,-7.1116 -1.15645,-4.48058 7.479336,-1.64969 11.222516,-3.41908 2.42259,-1.14517 8.473218,-0.49311 8.473218,4.1343 z"
       sodipodi:nodetypes="sssss"
       inkscape:spray-origin="#ellipse17580-3-68" />
    <path
       id="path19470"
       style="fill:#981e97;fill-opacity:1;stroke-width:8"
       d="m 214.58463,196.51486 c 7.94466,4.40672 6.09975,18.16676 1.10306,16.98926 -5.05904,-1.19219 -20.24811,-6.88202 -21.90222,-13.29078 -1.15645,-4.48058 11.45398,-6.86642 15.19716,-8.63581 2.42259,-1.14517 1.5554,2.69278 5.602,4.93733 z"
       sodipodi:nodetypes="sssss"
       inkscape:spray-origin="#ellipse17580-3-68" />
    <path
       id="path19474"
       style="fill:#981e97;fill-opacity:1;stroke-width:8"
       d="m 269.09599,155.43689 c 7.94466,4.40672 -2.44963,11.66501 -7.44632,10.48751 -5.05904,-1.19219 -11.26754,-2.96741 -12.92165,-9.37617 -1.15645,-4.48058 11.02279,-4.27928 14.76597,-6.04867 2.42259,-1.14517 1.5554,2.69278 5.602,4.93733 z"
       sodipodi:nodetypes="sssss"
       inkscape:spray-origin="#ellipse17580-3-68" />
    <path
       id="path19478"
       style="fill:#981e97;fill-opacity:1;stroke-width:8"
       d="m 253.66002,203.93238 c 7.94466,4.40672 -5.4138,13.56134 -10.41049,12.38384 -5.05904,-1.19219 -8.73456,-2.2766 -10.38867,-8.68536 -1.15645,-4.48058 11.45398,-6.86642 15.19716,-8.63581 2.42259,-1.14517 1.5554,2.69278 5.602,4.93733 z"
       sodipodi:nodetypes="sssss"
       inkscape:spray-origin="#ellipse17580-3-68" />
    <path
       id="path19480"
       style="fill:#981e97;fill-opacity:1;stroke-width:8"
       d="m 274.75836,290.5962 c 7.94466,4.40672 1.7246,8.95592 -3.27209,7.77842 -5.05904,-1.19219 -15.87296,2.32882 -17.52707,-4.07994 -1.15645,-4.48058 11.45398,-6.86642 15.19716,-8.63581 2.42259,-1.14517 1.5554,2.69278 5.602,4.93733 z"
       sodipodi:nodetypes="sssss"
       inkscape:spray-origin="#ellipse17580-3-68" />
    <path
       id="path19482"
       style="fill:#981e97;fill-opacity:1;stroke-width:8"
       d="m 242.11094,227.71421 c 7.94466,4.40672 -9.55868,14.02188 -14.55537,12.84438 -5.05904,-1.19219 -3.43833,-5.96094 -5.09244,-12.3697 -1.15645,-4.48058 7.07883,-7.55723 10.82201,-9.32662 2.42259,-1.14517 4.7792,6.60739 8.8258,8.85194 z"
       sodipodi:nodetypes="sssss"
       inkscape:spray-origin="#ellipse17580-3-68" />
    <path
       id="path19484"
       style="fill:#981e97;fill-opacity:1;stroke-width:8"
       d="m 189.56948,262.00112 c 7.94466,4.40672 4.16476,22.03674 -0.83193,20.85924 -5.05904,-1.19219 -12.89514,-6.88202 -14.54925,-13.29078 -1.15645,-4.48058 4.10101,-6.86642 7.84419,-8.63581 2.42259,-1.14517 3.49039,-1.1772 7.53699,1.06735 z"
       sodipodi:nodetypes="sssss"
       inkscape:spray-origin="#ellipse17580-3-68" />
    <path
       id="path19486"
       style="fill:#981e97;fill-opacity:1;stroke-width:8.17808"
       d="m 135.71592,300.85742 c 7.94466,4.60509 -1.86081,16.89099 -6.16314,13.96431 -5.05904,-3.44143 -11.34715,-0.65807 -13.00126,-7.35533 -1.15644,-4.68229 2.94002,-12.02856 6.6832,-13.87761 2.42259,-1.19672 8.43461,4.92304 12.4812,7.26863 z"
       sodipodi:nodetypes="sssss"
       inkscape:spray-origin="#ellipse17580-3-68" />
    <path
       id="path19488"
       style="fill:#981e97;fill-opacity:1;stroke-width:8"
       d="m 201.06458,310.43135 c 7.94466,4.40672 0.34298,7.5743 -4.65371,6.3968 -5.05904,-1.19219 -8.29937,2.93644 -9.95348,-3.47232 -1.15645,-4.48058 -0.26449,-8.38907 3.47869,-10.15846 2.42259,-1.14517 7.0819,4.98943 11.1285,7.23398 z"
       sodipodi:nodetypes="sssss"
       inkscape:spray-origin="#ellipse17580-3-68" />
    <path
       id="path19490"
       style="fill:#981e97;fill-opacity:1;stroke-width:8"
       d="m 169.64029,299.4568 c 7.94466,4.40672 -2.88082,8.49538 -7.87751,7.31788 -5.05904,-1.19219 -9.29399,-0.0317 -10.9481,-6.44049 -1.15645,-4.48058 4.87501,-5.31843 8.61819,-7.08782 2.42259,-1.14517 6.16082,3.96588 10.20742,6.21043 z"
       sodipodi:nodetypes="sssss"
       inkscape:spray-origin="#ellipse17580-3-68" />
    <path
       id="path19492"
       style="fill:#981e97;fill-opacity:1;stroke-width:8"
       d="m 76.657876,237.17151 c 7.94466,4.40672 6.09975,18.16676 1.10306,16.98926 -5.05904,-1.19219 -20.24811,-6.88202 -21.90222,-13.29078 -1.15645,-4.48058 11.45398,-6.86642 15.19716,-8.63581 2.42259,-1.14517 1.5554,2.69278 5.602,4.93733 z"
       sodipodi:nodetypes="sssss"
       inkscape:spray-origin="#ellipse17580-3-68" />
    <path
       id="path19494"
       style="fill:#981e97;fill-opacity:1;stroke-width:8"
       d="m 88.187436,206.47724 c 7.944657,4.40672 6.099747,18.16676 1.10306,16.98926 -5.05904,-1.19219 -20.24811,-6.88202 -21.90222,-13.29078 -1.15645,-4.48058 11.45398,-6.86642 15.19716,-8.63581 2.42259,-1.14517 1.5554,2.69278 5.602,4.93733 z"
       sodipodi:nodetypes="sssss"
       inkscape:spray-origin="#ellipse17580-3-68" />
  </g>
</svg>
