<?xml version="1.0" encoding="UTF-8" standalone="no"?>
<!-- Created with Inkscape (http://www.inkscape.org/) -->

<svg
   width="770"
   height="400"
   viewBox="0 0 770 400"
   version="1.1"
   id="svg5"
   inkscape:version="1.2.2 (b0a84865, 2022-12-01)"
   sodipodi:docname="Logo_big_white.svg"
   inkscape:export-filename="Zeichnung2.png"
   inkscape:export-xdpi="96"
   inkscape:export-ydpi="96"
   xmlns:inkscape="http://www.inkscape.org/namespaces/inkscape"
   xmlns:sodipodi="http://sodipodi.sourceforge.net/DTD/sodipodi-0.dtd"
   xmlns:xlink="http://www.w3.org/1999/xlink"
   xmlns="http://www.w3.org/2000/svg"
   xmlns:svg="http://www.w3.org/2000/svg">
  <sodipodi:namedview
     id="namedview7"
     pagecolor="#ffffff"
     bordercolor="#000000"
     borderopacity="0.25"
     inkscape:showpageshadow="2"
     inkscape:pageopacity="0.0"
     inkscape:pagecheckerboard="0"
     inkscape:deskcolor="#d1d1d1"
     inkscape:document-units="px"
     showgrid="false"
     inkscape:zoom="0.81096882"
     inkscape:cx="358.83007"
     inkscape:cy="223.18984"
     inkscape:window-width="1440"
     inkscape:window-height="758"
     inkscape:window-x="0"
     inkscape:window-y="25"
     inkscape:window-maximized="0"
     inkscape:current-layer="layer1" />
  <defs
     id="defs2">
    <linearGradient
       id="linearGradient19268"
       inkscape:swatch="solid">
      <stop
         style="stop-color:#73015c;stop-opacity:1;"
         offset="0"
         id="stop19266" />
    </linearGradient>
    <linearGradient
       inkscape:collect="always"
       id="linearGradient19216">
      <stop
         style="stop-color:#000000;stop-opacity:1;"
         offset="0"
         id="stop19212" />
      <stop
         style="stop-color:#000000;stop-opacity:0;"
         offset="1"
         id="stop19214" />
    </linearGradient>
    <linearGradient
       id="linearGradient18442">
      <stop
         style="stop-color:#73015c;stop-opacity:1;"
         offset="0.41336274"
         id="stop18446" />
      <stop
         style="stop-color:#c0c0c0;stop-opacity:0.52156866;"
         offset="1"
         id="stop18448" />
    </linearGradient>
    <linearGradient
       id="linearGradient18442-1">
      <stop
         style="stop-color:#73015c;stop-opacity:1;"
         offset="0.46703506"
         id="stop18438" />
      <stop
         style="stop-color:#73015c;stop-opacity:0;"
         offset="1"
         id="stop18440" />
    </linearGradient>
    <linearGradient
       id="linearGradient18434"
       inkscape:swatch="solid">
      <stop
         style="stop-color:#73015c;stop-opacity:1;"
         offset="0"
         id="stop18432" />
    </linearGradient>
    <linearGradient
       inkscape:collect="always"
       xlink:href="#linearGradient19216"
       id="linearGradient19218"
       x1="99.223061"
       y1="119.82498"
       x2="245.90613"
       y2="119.82498"
       gradientUnits="userSpaceOnUse" />
    <linearGradient
       inkscape:collect="always"
       xlink:href="#linearGradient19268"
       id="linearGradient19270"
       x1="99.223061"
       y1="119.82498"
       x2="245.90613"
       y2="119.82498"
       gradientUnits="userSpaceOnUse" />
  </defs>
  <g
     inkscape:label="Ebene 1"
     inkscape:groupmode="layer"
     id="layer1">
    <path
       id="path324"
       style="fill:#a57fb2;stroke-width:8.09316;fill-opacity:1"
       d="M 350.8738,200.63223 C 376.76503,257.3748 287.31786,329.68562 208.91763,345.70681 132.03506,361.41786 37.458784,280.13851 66.961449,200.63223 94.755959,125.72922 150.87672,1.6176991 208.91763,55.557642 269.255,111.63179 311.33942,113.98966 350.8738,200.63223 Z"
       sodipodi:nodetypes="sssss" />
    <path
       id="path324-0"
       style="fill:#d6bfdd;fill-opacity:1;stroke-width:8"
       d="M 323.47025,205.37874 C 349.36148,260.82253 259.91431,331.47823 181.51408,347.13271 104.63151,362.48415 10.055236,283.0652 39.5579,205.37874 67.35241,132.19019 123.47317,10.919459 181.51408,63.624767 241.85145,118.41544 283.93587,120.71934 323.47025,205.37874 Z"
       sodipodi:nodetypes="sssss" />
    <path
       id="ellipse17580-3-4"
       style="fill:#981e97;stroke-width:8;fill-opacity:1"
       d="m 137.91592,98.882384 c 0,4.627416 2.36566,11.271936 -2.63103,10.094436 -5.05905,-1.19219 -9.21387,-0.70284 -10.86798,-7.1116 -1.15645,-4.480581 1.35931,-8.865368 5.10249,-10.63477 2.42259,-1.145158 8.39652,3.02452 8.39652,7.651934 z"
       sodipodi:nodetypes="sssss" />
    <path
       id="ellipse17580-3-0"
       style="fill:#981e97;stroke-width:8;fill-opacity:1"
       d="m 165.90116,115.1738 c 2.39874,3.02825 -1.13249,8.6733 -6.12918,7.4958 -5.05905,-1.19219 -11.91245,-1.80226 -13.56656,-8.21102 -1.15645,-4.48058 5.95689,-2.1689 9.70007,-3.9383 2.42259,-1.14516 7.12241,1.02621 9.99567,4.65352 z"
       sodipodi:nodetypes="sssss" />
    <path
       id="ellipse17580-3-0-7"
       style="fill:#981e97;stroke-width:8;fill-opacity:1"
       d="m 160.93047,324.38111 c 2.39874,3.02825 -1.13249,8.6733 -6.12918,7.4958 -5.05905,-1.19219 -11.91245,-1.80226 -13.56656,-8.21102 -1.15645,-4.48058 5.95689,-2.1689 9.70007,-3.9383 2.42259,-1.14516 7.12241,1.02621 9.99567,4.65352 z"
       sodipodi:nodetypes="sssss"
       inkscape:transform-center-x="40.976486"
       inkscape:transform-center-y="-71.535222" />
    <path
       id="ellipse17580"
       style="fill:#981e97;stroke-width:8;fill-opacity:1"
       d="m 172.80416,82.748255 c 0,4.627414 -5.92996,12.771138 -10.92665,11.593643 -5.05905,-1.19219 -7.11498,-5.9001 -8.76909,-12.308862 -1.15645,-4.480576 -0.33979,-6.466628 3.40339,-8.23603 2.42259,-1.145158 16.29235,4.323835 16.29235,8.951249 z"
       sodipodi:nodetypes="sssss" />
    <path
       id="ellipse17580-9"
       style="fill:#981e97;stroke-width:8;fill-opacity:1"
       d="m 227.4749,314.00885 c 0,4.62742 -5.92996,12.77114 -10.92665,11.59364 -5.05905,-1.19219 -7.11498,-5.9001 -8.76909,-12.30886 -1.15645,-4.48057 -0.33979,-6.46663 3.40339,-8.23603 2.42259,-1.14516 16.29235,4.32384 16.29235,8.95125 z"
       sodipodi:nodetypes="sssss" />
    <path
       id="ellipse17580-3"
       style="fill:#981e97;stroke-width:8;fill-opacity:1"
       d="m 198.48073,101.60271 c 0,4.62741 -6.81206,10.80328 -11.80875,9.62578 -5.05905,-1.19219 -9.21387,-0.70284 -10.86798,-7.1116 -1.15645,-4.480578 5.74043,-6.121171 9.48361,-7.890571 2.42259,-1.14516 13.19312,0.748969 13.19312,5.376391 z"
       sodipodi:nodetypes="sssss" />
    <path
       id="ellipse17580-3-6"
       style="fill:#981e97;stroke-width:8;fill-opacity:1"
       d="m 230.24059,147.5791 c 0,4.6274 1.38566,7.07704 -3.61103,5.89954 -5.05905,-1.19219 -14.4306,-0.20601 -16.08471,-6.61476 -1.15645,-4.48058 11.45399,-6.86642 15.19717,-8.63582 2.42259,-1.14516 4.49857,4.72362 4.49857,9.35104 z"
       sodipodi:nodetypes="sssss" />
    <path
       id="ellipse17580-3-04"
       style="fill:#960090;stroke-width:8;fill-opacity:1"
       d="m 160.06765,146.06142 c 0,4.62741 0.392,7.57388 -4.60469,6.39638 -5.05905,-1.19219 -9.21387,-0.70284 -10.86798,-7.1116 -1.15645,-4.48058 11.45399,-6.86642 15.19717,-8.63581 2.42259,-1.14517 0.2755,4.72362 0.2755,9.35103 z"
       sodipodi:nodetypes="sssss" />
    <path
       id="ellipse17580-3-05"
       style="fill:#981e97;stroke-width:8;fill-opacity:1"
       d="m 134.15986,132.54179 c 0,4.62741 -3.83107,7.57388 -8.82777,6.39638 -5.05905,-1.19219 -4.24555,-4.92591 -5.89966,-11.33467 -1.15645,-4.48058 6.48567,-2.64335 10.22886,-4.41275 2.42259,-1.14516 4.49857,4.72362 4.49857,9.35104 z"
       sodipodi:nodetypes="sssss" />
    <path
       id="ellipse17580-3-05-0"
       style="fill:#981e97;stroke-width:8;fill-opacity:1"
       d="m 222.02832,257.00214 c 0,4.62741 -3.83107,7.57388 -8.82777,6.39638 -5.05905,-1.19219 -4.24555,-4.92591 -5.89966,-11.33467 -1.15645,-4.48058 6.48567,-2.64335 10.22886,-4.41275 2.42259,-1.14516 4.49857,4.72362 4.49857,9.35104 z"
       sodipodi:nodetypes="sssss" />
    <path
       id="ellipse17580-3-68"
       style="fill:#981e97;stroke-width:8;fill-opacity:1"
       d="m 94.525725,156.36252 c 0,4.62741 -3.83107,7.57388 -8.82776,6.39638 -5.059046,-1.19219 -9.213866,-0.70284 -10.867976,-7.1116 -1.15645,-4.48058 3.256269,-9.59899 6.999449,-11.36838 2.42259,-1.14517 12.696287,7.45619 12.696287,12.0836 z"
       sodipodi:nodetypes="sssss" />
    <path
       id="ellipse17580-3-68-9"
       style="fill:#981e97;stroke-width:8;fill-opacity:1"
       d="m 273.85811,181.95099 c 0,4.62741 -3.83107,7.57388 -8.82776,6.39638 -5.05905,-1.19219 -9.21387,-0.70284 -10.86798,-7.1116 -1.15645,-4.48058 3.25627,-9.59899 6.99945,-11.36838 2.42259,-1.14517 12.69629,7.45619 12.69629,12.0836 z"
       sodipodi:nodetypes="sssss" />
    <text
       xml:space="preserve"
       style="font-style:normal;font-variant:normal;font-weight:normal;font-stretch:normal;font-size:100.472px;line-height:1;font-family:'Bebas Neue';-inkscape-font-specification:'Bebas Neue, Normal';font-variant-ligatures:normal;font-variant-caps:normal;font-variant-numeric:normal;font-variant-east-asian:normal;fill:#ffffff;fill-opacity:1;stroke:none;stroke-width:8.61191"
       x="373.37973"
       y="133.94347"
       id="text17608-8"
       transform="scale(1.0090936,0.99098834)"><tspan
         sodipodi:role="line"
         id="tspan17606-6"
         x="373.37973"
         y="133.94347"
         style="font-style:normal;font-variant:normal;font-weight:normal;font-stretch:normal;font-size:100.472px;font-family:'Bebas Neue';-inkscape-font-specification:'Bebas Neue, Normal';font-variant-ligatures:normal;font-variant-caps:normal;font-variant-numeric:normal;font-variant-east-asian:normal;stroke-width:8.61191;fill:#ffffff;fill-opacity:1">M3</tspan><tspan
         sodipodi:role="line"
         x="373.37973"
         y="234.41547"
         id="tspan17610-7"
         style="font-style:normal;font-variant:normal;font-weight:normal;font-stretch:normal;font-size:100.472px;font-family:'Bebas Neue';-inkscape-font-specification:'Bebas Neue, Normal';font-variant-ligatures:normal;font-variant-caps:normal;font-variant-numeric:normal;font-variant-east-asian:normal;stroke-width:8.61191;fill:#ffffff;fill-opacity:1">AWARENESS</tspan><tspan
         sodipodi:role="line"
         x="373.37973"
         y="334.88745"
         id="tspan17612-1"
         style="font-style:normal;font-variant:normal;font-weight:normal;font-stretch:normal;font-size:100.472px;font-family:'Bebas Neue';-inkscape-font-specification:'Bebas Neue, Normal';font-variant-ligatures:normal;font-variant-caps:normal;font-variant-numeric:normal;font-variant-east-asian:normal;stroke-width:8.61191;fill:#ffffff;fill-opacity:1">PROJECT</tspan></text>
    <path
       id="path18641"
       style="fill:#981e97;stroke-width:8;fill-opacity:1"
       d="m 166.09639,234.08616 c 0,4.62741 -3.83107,7.57388 -8.82776,6.39638 -5.05905,-1.19219 -9.21387,-0.70284 -10.86798,-7.1116 -1.15645,-4.48058 11.45399,-6.86642 15.19717,-8.63581 2.42259,-1.14517 4.49857,4.72362 4.49857,9.35103 z"
       sodipodi:nodetypes="sssss"
       inkscape:spray-origin="#ellipse17580-3-68" />
    <path
       id="path18641-7"
       style="fill:#981e97;stroke-width:8;fill-opacity:1"
       d="m 138.62359,227.33423 c 0,4.62741 -7.14135,9.33936 -12.13804,8.16186 -5.05905,-1.19219 -9.21387,-0.70284 -10.86798,-7.1116 -1.15645,-4.48058 11.11735,-9.34096 15.19717,-8.63581 11.24999,1.94442 7.80885,2.95814 7.80885,7.58555 z"
       sodipodi:nodetypes="sssss"
       inkscape:spray-origin="#ellipse17580-3-68" />
    <path
       id="path18643"
       style="fill:#981e97;stroke-width:8;fill-opacity:1"
       d="m 104.62437,271.76116 c 0.96403,9.44754 -0.30011,10.2221 -15.227627,8.16186 -5.148814,-0.71062 -9.213866,-0.70284 -10.867976,-7.1116 -1.15645,-4.48058 11.453986,-6.86642 15.197166,-8.63581 2.42259,-1.14517 10.428697,2.98204 10.898437,7.58555 z"
       sodipodi:nodetypes="sssss"
       inkscape:spray-origin="#ellipse17580-3-68" />
    <path
       id="path18645"
       style="fill:#981e97;stroke-width:8;fill-opacity:1"
       d="m 97.50155,235.33185 c 0,4.62741 -3.83107,7.57388 -8.82776,6.39638 -5.059046,-1.19219 -15.394611,-10.34493 -11.530031,-15.71832 3.698621,-5.14263 12.116041,1.7403 15.859221,-0.0291 2.42259,-1.14517 4.49857,4.72362 4.49857,9.35103 z"
       sodipodi:nodetypes="sssss"
       inkscape:spray-origin="#ellipse17580-3-68" />
    <path
       id="path18647"
       style="fill:#981e97;stroke-width:8;fill-opacity:1"
       d="m 154.33289,174.79231 c 0,4.62741 -7.80572,12.79061 -12.80241,11.61311 -5.05905,-1.19219 -9.21387,-0.70284 -10.86798,-7.1116 -1.15645,-4.48058 11.45399,-6.86642 15.19717,-8.63581 2.42259,-1.14517 8.47322,-0.49311 8.47322,4.1343 z"
       sodipodi:nodetypes="sssss"
       inkscape:spray-origin="#ellipse17580-3-68" />
    <path
       id="path18649"
       style="fill:#981e97;stroke-width:8;fill-opacity:1"
       d="m 194.2428,235.55186 c 0,4.62741 3.1349,6.02589 -1.86179,4.84839 -5.05905,-1.19219 -3.31614,-0.0952 -9.22723,-5.34292 -3.46047,-3.07215 0.64042,-12.16287 4.3836,-13.93226 2.42259,-1.14517 6.70542,9.79938 6.70542,14.42679 z"
       sodipodi:nodetypes="sssss"
       inkscape:spray-origin="#ellipse17580-3-68" />
    <path
       id="path18739"
       style="fill:#981e97;stroke-width:8;fill-opacity:1"
       d="m 240.94167,289.60673 c 0,4.62741 -5.47194,9.41626 -10.46863,8.23876 -5.05904,-1.19219 -7.57299,-2.54522 -9.2271,-8.95398 -1.15645,-4.48058 11.45398,-6.86642 15.19716,-8.63581 2.42259,-1.14517 4.49857,4.72362 4.49857,9.35103 z"
       sodipodi:nodetypes="sssss"
       inkscape:spray-origin="#ellipse17580-3-68" />
    <path
       id="path18741"
       style="fill:#981e97;stroke-width:8;fill-opacity:1"
       d="m 227.93257,125.87087 c 0,4.62741 -3.83107,7.57388 -8.82776,6.39638 -5.05904,-1.19219 -1.04851,-11.07504 -2.70262,-17.4838 -1.15645,-4.48058 7.21944,-8.05733 9.23866,-4.44279 3.30533,5.91675 2.29172,10.9028 2.29172,15.53021 z"
       sodipodi:nodetypes="sssss"
       inkscape:spray-origin="#ellipse17580-3-68" />
    <path
       id="path18745"
       style="fill:#981e97;stroke-width:8;fill-opacity:1"
       d="m 199.16467,168.90856 c 0,4.62741 -3.83107,7.57388 -8.82776,6.39638 -5.05904,-1.19219 -9.21386,-0.70284 -10.86797,-7.1116 -1.15645,-4.48058 2.51102,-6.86642 6.2542,-8.63581 2.42259,-1.14517 13.44153,4.72362 13.44153,9.35103 z"
       sodipodi:nodetypes="sssss"
       inkscape:spray-origin="#ellipse17580-3-68" />
    <path
       id="path18747"
       style="fill:#981e97;stroke-width:8;fill-opacity:1"
       d="m 113.51198,112.98158 c 0,4.62741 -3.83107,7.57388 -8.82776,6.39638 -5.059047,-1.19219 -9.213867,-0.70284 -10.867977,-7.1116 -1.156445,-4.48058 11.453987,-6.86642 15.197167,-8.63581 2.42259,-1.14517 4.49857,4.72362 4.49857,9.35103 z"
       sodipodi:nodetypes="sssss"
       inkscape:spray-origin="#ellipse17580-3-68" />
    <path
       id="path18749"
       style="fill:#981e97;stroke-width:8;fill-opacity:1"
       d="m 230.36518,178.2936 c 0,4.62741 -3.83107,7.57388 -8.82776,6.39638 -5.05905,-1.19219 -9.21387,-0.70284 -10.86798,-7.1116 -1.15645,-4.48058 11.45399,-6.86642 15.19717,-8.63581 2.42259,-1.14517 4.49857,4.72362 4.49857,9.35103 z"
       sodipodi:nodetypes="sssss"
       inkscape:spray-origin="#ellipse17580-3-68" />
    <path
       id="path18751"
       style="fill:#960090;stroke-width:8;fill-opacity:1"
       d="m 195.93833,132.99941 c 0,4.62741 -3.83107,7.57388 -8.82776,6.39638 -5.05904,-1.19219 -9.21386,-0.70284 -10.86797,-7.1116 -1.15645,-4.48058 2.75943,-7.11484 6.50261,-8.88423 2.42259,-1.14517 13.19312,4.97204 13.19312,9.59945 z"
       sodipodi:nodetypes="sssss"
       inkscape:spray-origin="#ellipse17580-3-68" />
    <path
       id="path18753"
       style="fill:#981e97;stroke-width:8;fill-opacity:1"
       d="m 110.51844,252.90771 c -7.72398,4.40672 -3.83107,7.57388 -8.82776,6.39638 -5.059047,-1.19219 -9.213867,-0.70284 -10.867977,-7.1116 -1.15645,-4.48058 11.453987,-6.86642 15.197167,-8.63581 2.42259,-1.14517 8.51785,7.05793 4.49857,9.35103 z"
       sodipodi:nodetypes="sssss"
       inkscape:spray-origin="#ellipse17580-3-68" />
    <path
       id="path18755"
       style="fill:#981e97;stroke-width:8;fill-opacity:1"
       d="m 170.30468,200.20581 c 0,4.62741 -3.83107,7.57388 -8.82776,6.39638 -5.05904,-1.19219 -5.73604,-9.39739 -7.39015,-15.80615 -1.15645,-4.48058 7.97616,1.82813 11.71934,0.0587 2.42259,-1.14517 4.49857,4.72362 4.49857,9.35103 z"
       sodipodi:nodetypes="sssss"
       inkscape:spray-origin="#ellipse17580-3-68" />
    <path
       id="path18757"
       style="fill:#981e97;stroke-width:8;fill-opacity:1"
       d="m 210.35586,285.50364 c 0,4.62741 -3.83107,7.57388 -8.82776,6.39638 -5.05905,-1.19219 -9.21387,-0.70284 -10.86798,-7.1116 -1.15645,-4.48058 4.39207,-4.2182 8.13525,-5.98759 2.42259,-1.14517 11.56049,2.0754 11.56049,6.70281 z"
       sodipodi:nodetypes="sssss"
       inkscape:spray-origin="#ellipse17580-3-68" />
    <path
       id="path18759"
       style="fill:#981e97;stroke-width:8;fill-opacity:1"
       d="m 132.13296,197.62652 c 0,4.62741 -5.07315,12.79061 -10.06984,11.61311 -5.05905,-1.19219 -7.97179,-5.91957 -9.6259,-12.32833 -1.15645,-4.48058 11.45399,-6.86642 15.19717,-8.63581 2.42259,-1.14517 4.49857,4.72362 4.49857,9.35103 z"
       sodipodi:nodetypes="sssss"
       inkscape:spray-origin="#ellipse17580-3-68" />
    <path
       id="path18761"
       style="fill:#981e97;stroke-width:8;fill-opacity:1"
       d="m 127.07503,157.46681 c 0,4.62741 -1.56901,3.04976 -8.82776,6.39638 -4.72011,2.17619 -9.21386,-0.70284 -10.86797,-7.1116 -1.15645,-4.48058 11.45398,-6.86642 15.19716,-8.63581 2.42259,-1.14517 4.49857,4.72362 4.49857,9.35103 z"
       sodipodi:nodetypes="sssss"
       inkscape:spray-origin="#ellipse17580-3-68" />
    <path
       id="path18763"
       style="fill:#981e97;stroke-width:8;fill-opacity:1"
       d="m 151.86006,268.64293 c 0,4.62741 -4.05176,13.09101 -9.04845,11.91351 -5.05904,-1.19219 -8.99317,-6.21997 -10.64728,-12.62873 -1.15645,-4.48058 2.62658,-9.73533 6.36976,-11.50472 2.42259,-1.14517 13.32597,7.59253 13.32597,12.21994 z"
       sodipodi:nodetypes="sssss"
       inkscape:spray-origin="#ellipse17580-3-68" />
    <path
       id="path18765"
       style="fill:#981e97;stroke-width:8;fill-opacity:1"
       d="m 98.203207,182.88264 c 0,4.62741 -3.83107,7.57388 -8.82776,6.39638 -5.059046,-1.19219 -9.213866,-0.70284 -10.867976,-7.1116 -1.15645,-4.48058 7.479335,-1.64969 11.222515,-3.41908 2.42259,-1.14517 8.473221,-0.49311 8.473221,4.1343 z"
       sodipodi:nodetypes="sssss"
       inkscape:spray-origin="#ellipse17580-3-68" />
    <path
       id="path19470"
       style="fill:#981e97;stroke-width:8;fill-opacity:1"
       d="m 206.79849,192.27252 c 7.94466,4.40672 6.09975,18.16676 1.10306,16.98926 -5.05904,-1.19219 -20.24811,-6.88202 -21.90222,-13.29078 -1.15645,-4.48058 11.45398,-6.86642 15.19716,-8.63581 2.42259,-1.14517 1.5554,2.69278 5.602,4.93733 z"
       sodipodi:nodetypes="sssss"
       inkscape:spray-origin="#ellipse17580-3-68" />
    <path
       id="path19474"
       style="fill:#981e97;stroke-width:8;fill-opacity:1"
       d="m 261.30985,151.19455 c 7.94466,4.40672 -2.44963,11.66501 -7.44632,10.48751 -5.05904,-1.19219 -11.26754,-2.96741 -12.92165,-9.37617 -1.15645,-4.48058 11.02279,-4.27928 14.76597,-6.04867 2.42259,-1.14517 1.5554,2.69278 5.602,4.93733 z"
       sodipodi:nodetypes="sssss"
       inkscape:spray-origin="#ellipse17580-3-68" />
    <path
       id="path19478"
       style="fill:#981e97;stroke-width:8;fill-opacity:1"
       d="m 245.87388,199.69004 c 7.94466,4.40672 -5.4138,13.56134 -10.41049,12.38384 -5.05904,-1.19219 -8.73456,-2.2766 -10.38867,-8.68536 -1.15645,-4.48058 11.45398,-6.86642 15.19716,-8.63581 2.42259,-1.14517 1.5554,2.69278 5.602,4.93733 z"
       sodipodi:nodetypes="sssss"
       inkscape:spray-origin="#ellipse17580-3-68" />
    <path
       id="path19480"
       style="fill:#981e97;stroke-width:8;fill-opacity:1"
       d="m 266.97222,286.35386 c 7.94466,4.40672 1.7246,8.95592 -3.27209,7.77842 -5.05904,-1.19219 -15.87296,2.32882 -17.52707,-4.07994 -1.15645,-4.48058 11.45398,-6.86642 15.19716,-8.63581 2.42259,-1.14517 1.5554,2.69278 5.602,4.93733 z"
       sodipodi:nodetypes="sssss"
       inkscape:spray-origin="#ellipse17580-3-68" />
    <path
       id="path19482"
       style="fill:#981e97;stroke-width:8;fill-opacity:1"
       d="m 234.3248,223.47187 c 7.94466,4.40672 -9.55868,14.02188 -14.55537,12.84438 -5.05904,-1.19219 -3.43833,-5.96094 -5.09244,-12.3697 -1.15645,-4.48058 7.07883,-7.55723 10.82201,-9.32662 2.42259,-1.14517 4.7792,6.60739 8.8258,8.85194 z"
       sodipodi:nodetypes="sssss"
       inkscape:spray-origin="#ellipse17580-3-68" />
    <path
       id="path19484"
       style="fill:#981e97;stroke-width:8;fill-opacity:1"
       d="m 181.78334,257.75878 c 7.94466,4.40672 4.16476,22.03674 -0.83193,20.85924 -5.05904,-1.19219 -12.89514,-6.88202 -14.54925,-13.29078 -1.15645,-4.48058 4.10101,-6.86642 7.84419,-8.63581 2.42259,-1.14517 3.49039,-1.1772 7.53699,1.06735 z"
       sodipodi:nodetypes="sssss"
       inkscape:spray-origin="#ellipse17580-3-68" />
    <path
       id="path19486"
       style="fill:#981e97;stroke-width:8.17808;fill-opacity:1"
       d="m 127.92978,296.61508 c 7.94466,4.60509 -1.86081,16.89099 -6.16314,13.96431 -5.05904,-3.44143 -11.34715,-0.65807 -13.00126,-7.35533 -1.15644,-4.68229 2.94002,-12.02856 6.6832,-13.87761 2.42259,-1.19672 8.43461,4.92304 12.4812,7.26863 z"
       sodipodi:nodetypes="sssss"
       inkscape:spray-origin="#ellipse17580-3-68" />
    <path
       id="path19488"
       style="fill:#981e97;stroke-width:8;fill-opacity:1"
       d="m 193.27844,306.18901 c 7.94466,4.40672 0.34298,7.5743 -4.65371,6.3968 -5.05904,-1.19219 -8.29937,2.93644 -9.95348,-3.47232 -1.15645,-4.48058 -0.26449,-8.38907 3.47869,-10.15846 2.42259,-1.14517 7.0819,4.98943 11.1285,7.23398 z"
       sodipodi:nodetypes="sssss"
       inkscape:spray-origin="#ellipse17580-3-68" />
    <path
       id="path19490"
       style="fill:#981e97;stroke-width:8;fill-opacity:1"
       d="m 161.85415,295.21446 c 7.94466,4.40672 -2.88082,8.49538 -7.87751,7.31788 -5.05904,-1.19219 -9.29399,-0.0317 -10.9481,-6.44049 -1.15645,-4.48058 4.87501,-5.31843 8.61819,-7.08782 2.42259,-1.14517 6.16082,3.96588 10.20742,6.21043 z"
       sodipodi:nodetypes="sssss"
       inkscape:spray-origin="#ellipse17580-3-68" />
    <path
       id="path19492"
       style="fill:#981e97;stroke-width:8;fill-opacity:1"
       d="m 68.871735,232.92917 c 7.94466,4.40672 6.09975,18.16676 1.10306,16.98926 -5.05904,-1.19219 -20.24811,-6.88202 -21.90222,-13.29078 -1.15645,-4.48058 11.45398,-6.86642 15.19716,-8.63581 2.42259,-1.14517 1.5554,2.69278 5.602,4.93733 z"
       sodipodi:nodetypes="sssss"
       inkscape:spray-origin="#ellipse17580-3-68" />
    <path
       id="path19494"
       style="fill:#981e97;stroke-width:8;fill-opacity:1"
       d="m 80.401297,202.2349 c 7.94466,4.40672 6.09975,18.16676 1.10306,16.98926 -5.05904,-1.19219 -20.24811,-6.88202 -21.90222,-13.29078 -1.15645,-4.48058 11.45398,-6.86642 15.19716,-8.63581 2.42259,-1.14517 1.5554,2.69278 5.602,4.93733 z"
       sodipodi:nodetypes="sssss"
       inkscape:spray-origin="#ellipse17580-3-68" />
  </g>
</svg>
